<svg width="60" height="60" viewBox="0 0 60 60" fill="none" xmlns="http://www.w3.org/2000/svg">
<g filter="url(#filter0_d_348_29996)">
<rect x="12" y="8" width="36" height="36" rx="18" fill="#D6B0FF" fill-opacity="0.18" shape-rendering="crispEdges"/>
<rect x="12.5" y="8.5" width="35" height="35" rx="17.5" stroke="#D1B6EE" stroke-opacity="0.25" shape-rendering="crispEdges"/>
<path d="M29.2573 20.8868V19.6104H35.6396V20.8868H29.2573ZM29.2573 23.4397V22.1633H35.6396V23.4397H29.2573ZM29.2573 25.9927V24.7162H35.6396V25.9927H29.2573ZM33.693 32.375C32.3634 32.375 31.0497 32.0852 29.752 31.5057C28.4542 30.9262 27.2735 30.1044 26.2098 29.0402C25.146 27.9761 24.3244 26.7954 23.7449 25.498C23.1654 24.2007 22.8754 22.887 22.875 21.557C22.875 21.3655 22.9388 21.2059 23.0665 21.0783C23.1941 20.9506 23.3537 20.8868 23.5451 20.8868H26.13C26.2789 20.8868 26.4119 20.9374 26.5289 21.0387C26.6459 21.14 26.715 21.2595 26.7363 21.3974L27.1512 23.6312C27.1724 23.8014 27.1671 23.945 27.1352 24.062C27.1033 24.179 27.0448 24.2801 26.9597 24.3652L25.412 25.9289C25.6247 26.3224 25.8772 26.7028 26.1696 27.07C26.4619 27.4372 26.7837 27.7908 27.1352 28.1308C27.465 28.4605 27.8107 28.7664 28.1723 29.0485C28.534 29.3306 28.9169 29.5885 29.3211 29.8221L30.821 28.3222C30.9167 28.2265 31.0418 28.1548 31.1963 28.1071C31.3507 28.0595 31.5022 28.0461 31.6507 28.0669L33.8526 28.5137C34.0015 28.5562 34.1238 28.6335 34.2196 28.7454C34.3153 28.8573 34.3632 28.9822 34.3632 29.12V31.7049C34.3632 31.8963 34.2994 32.0559 34.1717 32.1835C34.0441 32.3112 33.8845 32.375 33.693 32.375ZM24.8057 24.7162L25.8587 23.6631L25.5875 22.1633H24.1674C24.2206 22.5994 24.2951 23.0302 24.3908 23.4557C24.4865 23.8812 24.6248 24.3014 24.8057 24.7162ZM30.5178 30.4284C30.9327 30.6092 31.3556 30.7528 31.7866 30.8592C32.2177 30.9656 32.651 31.0347 33.0867 31.0666V29.6625L31.5869 29.3594L30.5178 30.4284Z" fill="#DCBAFF"/>
</g>
<defs>
<filter id="filter0_d_348_29996" x="0.3" y="0.3" width="59.4" height="59.4" filterUnits="userSpaceOnUse" color-interpolation-filters="sRGB">
<feFlood flood-opacity="0" result="BackgroundImageFix"/>
<feColorMatrix in="SourceAlpha" type="matrix" values="0 0 0 0 0 0 0 0 0 0 0 0 0 0 0 0 0 0 127 0" result="hardAlpha"/>
<feOffset dy="4"/>
<feGaussianBlur stdDeviation="5.85"/>
<feComposite in2="hardAlpha" operator="out"/>
<feColorMatrix type="matrix" values="0 0 0 0 0 0 0 0 0 0 0 0 0 0 0 0 0 0 0.15 0"/>
<feBlend mode="normal" in2="BackgroundImageFix" result="effect1_dropShadow_348_29996"/>
<feBlend mode="normal" in="SourceGraphic" in2="effect1_dropShadow_348_29996" result="shape"/>
</filter>
</defs>
</svg>
