<svg width="60" height="60" viewBox="0 0 60 60" fill="none" xmlns="http://www.w3.org/2000/svg">
<g filter="url(#filter0_d_348_30011)">
<rect x="12" y="8" width="36" height="36" rx="18" fill="#D6B0FF" fill-opacity="0.18" shape-rendering="crispEdges"/>
<rect x="12.5" y="8.5" width="35" height="35" rx="17.5" stroke="#D1B6EE" stroke-opacity="0.25" shape-rendering="crispEdges"/>
<path d="M33.3209 30.1389C33.5009 30.5349 33.5954 30.9642 33.5999 31.3989H26.3999C26.4051 30.9632 26.5032 30.5336 26.6879 30.1389C26.8747 29.7337 27.1518 29.3766 27.4979 29.0949L29.1359 27.7269C29.3881 27.5154 29.5909 27.2512 29.7299 26.9529C29.8739 26.6559 29.9468 26.3292 29.9459 25.9989H30.0539C30.0665 26.3319 30.1556 26.6595 30.3149 26.9529C30.4508 27.2481 30.6506 27.5091 30.8999 27.7179L32.5019 29.0949C32.8484 29.3784 33.1283 29.7339 33.3209 30.1389ZM25.6754 33.0585C25.8824 33.1521 26.1005 33.1989 26.3297 33.1989H33.6701C33.9041 33.1941 34.1246 33.1473 34.3316 33.0585C34.5374 32.9685 34.7201 32.8419 34.8797 32.6787C35.0393 32.5149 35.1659 32.3298 35.2595 32.1234C35.3531 31.9164 35.3999 31.6983 35.3999 31.4691C35.3999 31.0989 35.36 30.7404 35.2802 30.3936C35.2009 30.0482 35.0879 29.7115 34.9427 29.3883C34.7986 29.0657 34.617 28.7612 34.4018 28.4811C34.1827 28.1963 33.9328 27.9368 33.6566 27.7071L32.0186 26.3436C31.9678 26.3016 31.927 26.249 31.8989 26.1894C31.8709 26.1298 31.8563 26.0647 31.8563 25.9989C31.8563 25.933 31.8709 25.868 31.8989 25.8084C31.927 25.7488 31.9678 25.6962 32.0186 25.6542L33.6566 24.2835C34.2109 23.8283 34.6554 23.2539 34.9571 22.6032C35.2542 21.9523 35.4053 21.2442 35.3999 20.5287C35.3984 20.3025 35.3516 20.079 35.2623 19.8712C35.1729 19.6635 35.0428 19.4757 34.8797 19.3191C34.7176 19.1617 34.5298 19.0333 34.3244 18.9393C34.1193 18.8448 33.8959 18.7968 33.6701 18.7989H26.3297C26.0957 18.8031 25.8755 18.8499 25.6691 18.9393C25.4621 19.0293 25.2791 19.1559 25.1201 19.3191C24.9627 19.4812 24.8343 19.669 24.7403 19.8744C24.6467 20.0814 24.5999 20.2995 24.5999 20.5287C24.6047 21.2691 24.7547 21.9606 25.0499 22.6032C25.351 23.2525 25.7931 23.8265 26.3441 24.2835L27.9821 25.6542C28.0327 25.6963 28.0734 25.7489 28.1013 25.8085C28.1293 25.8681 28.1438 25.9331 28.1438 25.9989C28.1438 26.0647 28.1293 26.1297 28.1013 26.1893C28.0734 26.2488 28.0327 26.3015 27.9821 26.3436L26.3441 27.7071C26.0686 27.9405 25.8185 28.2024 25.598 28.4883C25.1652 29.0526 24.8627 29.7057 24.7124 30.4008C24.6369 30.7519 24.5992 31.11 24.5999 31.4691C24.6047 31.7031 24.6515 31.9236 24.7403 32.1306C24.8303 32.3364 24.9569 32.5191 25.1201 32.6787C25.2839 32.8383 25.469 32.9649 25.6754 33.0585ZM33.9653 32.2359C33.8601 32.2775 33.748 32.2988 33.635 32.2989H26.3648C26.2488 32.2975 26.1342 32.2736 26.0273 32.2287C25.9253 32.1852 25.8322 32.1233 25.7528 32.046C25.6714 31.9686 25.6071 31.8751 25.5638 31.7715C25.5211 31.6644 25.4994 31.5501 25.4999 31.4349C25.5017 30.8565 25.6288 30.2854 25.8725 29.7609C26.1159 29.2362 26.4739 28.7727 26.9201 28.4046L28.5581 27.033C28.7129 26.9022 28.8326 26.7477 28.9172 26.5695C29.0006 26.39 29.0438 26.1945 29.0438 25.9966C29.0438 25.7987 29.0006 25.6032 28.9172 25.4238C28.8357 25.2429 28.7127 25.0838 28.5581 24.9594L26.9201 23.595C26.6939 23.4117 26.4908 23.2017 26.3153 22.9695C26.1448 22.7402 25.9965 22.4952 25.8725 22.2378C25.7465 21.9782 25.6523 21.7045 25.5917 21.4224C25.5306 21.1403 25.4998 20.8524 25.4999 20.5638C25.5047 20.4378 25.5281 20.3253 25.5701 20.2263C25.6121 20.1279 25.673 20.0364 25.7528 19.9518C25.8302 19.8704 25.9237 19.8061 26.0273 19.7628C26.1343 19.7201 26.2486 19.6984 26.3639 19.6989H33.6341C33.7601 19.7079 33.8726 19.7313 33.9716 19.7691C34.0706 19.8069 34.1621 19.8678 34.2461 19.9518C34.3268 20.0319 34.3907 20.1272 34.4342 20.2323C34.4776 20.3374 34.4996 20.4501 34.499 20.5638C34.4995 21.1444 34.3722 21.7181 34.1264 22.2441C33.8821 22.7665 33.5242 23.2278 33.0788 23.5941L31.4408 24.9585C31.286 25.0845 31.1663 25.239 31.0817 25.422C30.9981 25.6016 30.9548 25.7972 30.9548 25.9953C30.9548 26.1934 30.9981 26.389 31.0817 26.5686C31.1663 26.7468 31.286 26.9013 31.4408 27.0321L33.0788 28.4037C33.5378 28.7877 33.8894 29.2401 34.1336 29.7609C34.3772 30.2811 34.499 30.8391 34.499 31.4349C34.4923 31.5499 34.4686 31.6634 34.4288 31.7715C34.3873 31.8745 34.3251 31.968 34.2461 32.046C34.165 32.1263 34.0694 32.1904 33.9644 32.235" fill="#DCBAFF"/>
</g>
<defs>
<filter id="filter0_d_348_30011" x="0.3" y="0.3" width="59.4" height="59.4" filterUnits="userSpaceOnUse" color-interpolation-filters="sRGB">
<feFlood flood-opacity="0" result="BackgroundImageFix"/>
<feColorMatrix in="SourceAlpha" type="matrix" values="0 0 0 0 0 0 0 0 0 0 0 0 0 0 0 0 0 0 127 0" result="hardAlpha"/>
<feOffset dy="4"/>
<feGaussianBlur stdDeviation="5.85"/>
<feComposite in2="hardAlpha" operator="out"/>
<feColorMatrix type="matrix" values="0 0 0 0 0 0 0 0 0 0 0 0 0 0 0 0 0 0 0.15 0"/>
<feBlend mode="normal" in2="BackgroundImageFix" result="effect1_dropShadow_348_30011"/>
<feBlend mode="normal" in="SourceGraphic" in2="effect1_dropShadow_348_30011" result="shape"/>
</filter>
</defs>
</svg>
