<svg width="17" height="17" viewBox="0 0 17 17" fill="none" xmlns="http://www.w3.org/2000/svg">
<path fill-rule="evenodd" clip-rule="evenodd" d="M0.957011 5.07673C0.553711 5.81354 0.553711 6.70235 0.553711 8.47997V9.66152C0.553711 12.6916 0.553711 14.2067 1.46377 15.1481C2.37383 16.0894 3.83855 16.0894 6.76799 16.0894H9.87514C12.8045 16.0894 14.2693 16.0894 15.1793 15.1481C16.0894 14.2067 16.0894 12.6916 16.0894 9.66152V8.47997C16.0894 6.70235 16.0894 5.81354 15.6861 5.07673C15.2828 4.33992 14.546 3.88263 13.0723 2.96806L11.5187 2.00387C9.96104 1.03709 9.18224 0.553711 8.32156 0.553711C7.46094 0.553711 6.68207 1.0371 5.12434 2.00387L3.57077 2.96806C2.09714 3.88263 1.36032 4.33992 0.957011 5.07673ZM6.33813 10.9607C6.07964 10.7691 5.71477 10.8233 5.52317 11.0818C5.33157 11.3403 5.3858 11.7051 5.64428 11.8967C6.39964 12.4566 7.32342 12.7881 8.32156 12.7881C9.31974 12.7881 10.2434 12.4566 10.9988 11.8967C11.2573 11.7051 11.3115 11.3403 11.1199 11.0818C10.9283 10.8233 10.5634 10.7691 10.305 10.9607C9.73924 11.38 9.05634 11.6229 8.32156 11.6229C7.5868 11.6229 6.90389 11.38 6.33813 10.9607Z" fill="white"/>
</svg>
