<svg width="19" height="19" viewBox="0 0 19 19" fill="none" xmlns="http://www.w3.org/2000/svg">
<path d="M17.2662 13.7983C17.0827 13.6028 16.4347 13.0248 15.2436 12.2602C14.0438 11.4889 13.1589 11.0079 12.905 10.8958C12.8827 10.8859 12.858 10.8822 12.8337 10.8852C12.8095 10.8883 12.7865 10.8979 12.7672 10.913C12.3584 11.2319 11.67 11.8176 11.6331 11.8492C11.3947 12.0535 11.3947 12.0535 11.1996 11.9898C10.8565 11.8773 9.79055 11.3113 8.86172 10.3804C7.93289 9.44945 7.3377 8.35714 7.2252 8.01437C7.16086 7.8189 7.16086 7.8189 7.36582 7.58054C7.39746 7.54363 7.98352 6.85527 8.30239 6.44675C8.31751 6.42751 8.3271 6.40452 8.33014 6.38024C8.33317 6.35596 8.32954 6.33131 8.31961 6.30894C8.20746 6.05476 7.72653 5.17023 6.9552 3.97034C6.1895 2.7796 5.61223 2.13167 5.41676 1.94816C5.39882 1.93123 5.37665 1.91946 5.35258 1.91407C5.32852 1.90869 5.30344 1.9099 5.28 1.91757C4.59674 2.15238 3.93749 2.45199 3.31125 2.8123C2.70671 3.16373 2.13438 3.56784 1.6009 4.01991C1.58228 4.03575 1.56832 4.05635 1.56051 4.07951C1.55271 4.10268 1.55136 4.12753 1.5566 4.1514C1.63008 4.49382 1.98129 5.92327 3.07114 7.90327C4.18313 9.92406 4.95375 10.9594 6.58676 12.5868C8.21977 14.2142 9.28782 15.0312 11.3107 16.1432C13.2907 17.233 14.7209 17.5846 15.0626 17.6574C15.0865 17.6626 15.1114 17.6612 15.1346 17.6534C15.1578 17.6456 15.1785 17.6317 15.1944 17.6131C15.6464 17.0796 16.0504 16.5073 16.4017 15.9027C16.7619 15.2765 17.0615 14.6172 17.2964 13.934C17.3039 13.9107 17.3051 13.8859 17.2998 13.862C17.2945 13.8381 17.2829 13.8161 17.2662 13.7983Z" fill="white"/>
</svg>
