<svg width="12" height="14" viewBox="0 0 12 14" fill="none" xmlns="http://www.w3.org/2000/svg">
<path d="M1.3335 2.33323C1.95659 1.72247 2.79432 1.38037 3.66683 1.38037C4.53934 1.38037 5.37707 1.72247 6.00016 2.33323C6.62326 2.94398 7.46099 3.28609 8.3335 3.28609C9.206 3.28609 10.0437 2.94398 10.6668 2.33323V8.33323C10.0437 8.94398 9.206 9.28609 8.3335 9.28609C7.46099 9.28609 6.62326 8.94398 6.00016 8.33323C5.37707 7.72247 4.53934 7.38037 3.66683 7.38037C2.79432 7.38037 1.95659 7.72247 1.3335 8.33323V2.33323ZM1.3335 12.9999V8.33323V12.9999Z" fill="#EF6464"/>
<path d="M1.3335 8.33323C1.95659 7.72247 2.79432 7.38037 3.66683 7.38037C4.53934 7.38037 5.37707 7.72247 6.00016 8.33323C6.62326 8.94398 7.46099 9.28609 8.3335 9.28609C9.206 9.28609 10.0437 8.94398 10.6668 8.33323V2.33323C10.0437 2.94398 9.206 3.28609 8.3335 3.28609C7.46099 3.28609 6.62326 2.94398 6.00016 2.33323C5.37707 1.72247 4.53934 1.38037 3.66683 1.38037C2.79432 1.38037 1.95659 1.72247 1.3335 2.33323V8.33323ZM1.3335 8.33323V12.9999" stroke="#E81B18" stroke-width="1.33333" stroke-linecap="round" stroke-linejoin="round"/>
</svg>
