<svg width="18" height="15" viewBox="0 0 18 15" fill="none" xmlns="http://www.w3.org/2000/svg">
<path d="M9.90609 0.41687C8.02082 0.41687 6.21277 1.16579 4.87969 2.49887C3.54661 3.83195 2.79769 5.64 2.79769 7.52527H0.428223L3.50063 10.5977L3.55592 10.7083L6.7468 7.52527H4.37733C4.37733 4.46866 6.84948 1.99651 9.90609 1.99651C12.9627 1.99651 15.4348 4.46866 15.4348 7.52527C15.4348 10.5819 12.9627 13.054 9.90609 13.054C8.38173 13.054 6.99954 12.4301 6.00437 11.427L4.88282 12.5485C5.54096 13.2106 6.32371 13.7357 7.18589 14.0936C8.04806 14.4514 8.97259 14.635 9.90609 14.6337C11.7914 14.6337 13.5994 13.8847 14.9325 12.5517C16.2656 11.2186 17.0145 9.41053 17.0145 7.52527C17.0145 5.64 16.2656 3.83195 14.9325 2.49887C13.5994 1.16579 11.7914 0.41687 9.90609 0.41687ZM9.11626 4.36598V8.31509L12.473 10.3054L13.0812 9.29447L10.301 7.64374V4.36598H9.11626Z" fill="white"/>
</svg>
