<svg width="11" height="11" viewBox="0 0 11 11" fill="none" xmlns="http://www.w3.org/2000/svg">
<path d="M2.53125 0.15625C3.00367 0.15625 3.45673 0.343917 3.79078 0.677966C4.12483 1.01202 4.3125 1.46508 4.3125 1.9375V9.0625C4.3125 9.53492 4.12483 9.98798 3.79078 10.322C3.45673 10.6561 3.00367 10.8438 2.53125 10.8438C2.05883 10.8438 1.60576 10.6561 1.27172 10.322C0.937667 9.98798 0.75 9.53492 0.75 9.0625V1.9375C0.75 1.46508 0.937667 1.01202 1.27172 0.677966C1.60576 0.343917 2.05883 0.15625 2.53125 0.15625ZM8.46875 0.15625C8.94117 0.15625 9.39423 0.343917 9.72828 0.677966C10.0623 1.01202 10.25 1.46508 10.25 1.9375V9.0625C10.25 9.53492 10.0623 9.98798 9.72828 10.322C9.39423 10.6561 8.94117 10.8438 8.46875 10.8438C7.99633 10.8438 7.54326 10.6561 7.20922 10.322C6.87517 9.98798 6.6875 9.53492 6.6875 9.0625V1.9375C6.6875 1.46508 6.87517 1.01202 7.20922 0.677966C7.54326 0.343917 7.99633 0.15625 8.46875 0.15625Z" fill="#9653DB"/>
</svg>
