<svg width="23" height="23" viewBox="0 0 23 23" fill="none" xmlns="http://www.w3.org/2000/svg">
<path d="M9.67721 10.9199C9.78438 10.9199 9.89051 10.8987 9.98953 10.8577C10.0885 10.8167 10.1785 10.7566 10.2543 10.6808C10.3301 10.605 10.3902 10.5151 10.4312 10.416C10.4722 10.317 10.4933 10.2109 10.4933 10.1037C10.4933 9.99655 10.4722 9.89042 10.4312 9.79141C10.3902 9.69239 10.3301 9.60242 10.2543 9.52664C10.1785 9.45085 10.0885 9.39074 9.98953 9.34972C9.89051 9.30871 9.78438 9.2876 9.67721 9.2876C9.46076 9.2876 9.25317 9.37358 9.10012 9.52664C8.94707 9.67969 8.86108 9.88727 8.86108 10.1037C8.86108 10.3202 8.94707 10.5278 9.10012 10.6808C9.25317 10.8339 9.46076 10.9199 9.67721 10.9199Z" fill="white"/>
<path fill-rule="evenodd" clip-rule="evenodd" d="M5.59945 14.4604V19.8961H13.3559V16.9444H15.3019C15.4233 16.9444 15.5394 16.9204 15.645 16.8773L14.5662 16.0378H12.4494V18.9896H6.50555V14.0951L6.25171 13.8317C5.50834 13.0589 4.05377 11.2526 4.05377 9.00612C4.05377 8.26728 4.33254 7.1359 5.17155 6.20034C5.91176 5.37492 7.15374 4.62973 9.2225 4.50372V7.69932C8.86479 7.76711 8.52671 7.91384 8.23289 8.12883C7.93907 8.34381 7.6969 8.62163 7.52404 8.94205C7.35118 9.26247 7.25197 9.61742 7.23365 9.98103C7.21532 10.3446 7.27835 10.7078 7.41812 11.0439C7.55789 11.3801 7.7709 11.6809 8.04162 11.9243C8.31234 12.1677 8.63395 12.3477 8.98303 12.4511C9.33211 12.5545 9.69986 12.5788 10.0595 12.522C10.4191 12.4653 10.7616 12.3291 11.0619 12.1233L17.4395 17.0745C17.4002 17.3011 17.4387 17.5343 17.5486 17.7363C17.6586 17.9383 17.8336 18.0972 18.0453 18.1872C18.2569 18.2772 18.4928 18.2931 18.7146 18.2321C18.9363 18.1712 19.131 18.0371 19.267 17.8516C19.4029 17.6661 19.4722 17.4401 19.4635 17.2103C19.4549 16.9804 19.3688 16.7603 19.2192 16.5856C19.0697 16.4108 18.8655 16.2918 18.6397 16.2477C18.414 16.2036 18.18 16.2372 17.9757 16.3429L11.7051 11.4742C11.9319 11.1379 12.0716 10.7506 12.1117 10.3469C12.1518 9.94331 12.091 9.53605 11.9347 9.16173C11.7784 8.78742 11.5316 8.45779 11.2165 8.20245C10.9013 7.94712 10.5276 7.77407 10.1291 7.69887V4.4874C11.2817 4.5087 12.0804 4.66327 12.6846 4.88991C13.3247 5.13015 13.7992 5.47011 14.2774 5.91296L14.3418 5.97279C14.8105 6.40703 14.9501 6.53667 15.0294 6.7479L16.9482 11.8563H15.3019V13.1654L16.2084 13.8702V12.7629H16.9482C17.0947 12.7631 17.239 12.7278 17.3689 12.6599C17.4987 12.592 17.6101 12.4937 17.6936 12.3733C17.7771 12.2529 17.8301 12.1141 17.8482 11.9687C17.8662 11.8233 17.8487 11.6757 17.7971 11.5386L15.878 6.42879C15.7198 6.00724 15.4138 5.72621 15.0285 5.37265L14.8939 5.24845C13.8219 4.25442 12.6021 3.57812 9.85482 3.57812C4.50977 3.57812 3.14722 7.14769 3.14722 9.00612C3.14722 11.6202 4.81664 13.6481 5.59945 14.4604ZM9.67577 11.6469C9.87822 11.6469 10.0787 11.6071 10.2657 11.5297C10.4528 11.4522 10.6227 11.3387 10.7659 11.1956C10.9091 11.0524 11.0227 10.8825 11.1002 10.6955C11.1777 10.5085 11.2176 10.308 11.2176 10.1055C11.2176 9.9031 11.1778 9.70263 11.1003 9.51559C11.0229 9.32854 10.9094 9.15858 10.7662 9.01541C10.6231 8.87224 10.4532 8.75866 10.2662 8.68116C10.0791 8.60366 9.87867 8.56376 9.67623 8.56373C9.26737 8.56373 8.87526 8.72614 8.58615 9.01525C8.29705 9.30435 8.13463 9.69647 8.13463 10.1053C8.13463 10.5142 8.29705 10.9063 8.58615 11.1954C8.87526 11.4845 9.26692 11.6469 9.67577 11.6469Z" fill="white"/>
</svg>
