<svg width="25" height="28" viewBox="0 0 25 28" fill="none" xmlns="http://www.w3.org/2000/svg">
<path d="M0.277344 15.5391C0.277344 9.70312 4.47266 4.75781 9.98047 3.58594V1.83984C9.98047 0.890625 10.7188 0.632812 11.5039 1.19531L15.582 4.125C16.2148 4.58203 16.2148 5.29688 15.582 5.74219L11.4922 8.67188C10.7188 9.23438 9.98047 8.96484 9.98047 8.02734V6.36328C5.92578 7.44141 2.97266 11.1211 2.97266 15.5391C2.97266 20.8242 7.21484 25.0781 12.5 25.0781C17.7852 25.0781 22.0508 20.8242 22.0391 15.5391C22.0273 12.5391 20.6562 9.92578 18.4766 8.16797C17.8789 7.61719 17.6797 6.84375 18.1836 6.21094C18.6289 5.61328 19.4609 5.54297 20.1758 6.12891C22.9062 8.22656 24.7227 11.8594 24.7227 15.5391C24.7227 22.2422 19.2031 27.7617 12.5 27.7617C5.79688 27.7617 0.277344 22.2422 0.277344 15.5391ZM9.21875 20.5078C8.66797 20.5078 8.30469 20.1328 8.30469 19.5234V13.3711H8.29297L7.39062 14.1328C7.16797 14.3789 6.99219 14.4609 6.69922 14.4609C6.26562 14.4609 5.91406 14.0859 5.91406 13.6406C5.91406 13.3008 6.06641 13.0547 6.40625 12.7617L7.84766 11.6836C8.32812 11.3086 8.64453 11.1797 9.04297 11.1797C9.72266 11.1797 10.1445 11.5898 10.1445 12.3516V19.5234C10.1445 20.1328 9.78125 20.5078 9.21875 20.5078ZM15.0547 20.6133C13.6016 20.6133 12.5586 19.793 12.2422 19.0078C12.1602 18.8086 12.125 18.6445 12.125 18.457C12.125 17.9883 12.4531 17.6602 12.9219 17.6602C13.2617 17.6602 13.4727 17.8242 13.6484 18.1055C13.9648 18.6211 14.457 18.9961 15.1133 18.9961C15.957 18.9961 16.5781 18.3164 16.5781 17.4141C16.5781 16.5352 16.0508 15.9141 15.207 15.9141C14.7734 15.9141 14.4453 16.0898 14.0469 16.4297C13.7539 16.6641 13.5898 16.7578 13.1211 16.7578C12.5352 16.7578 12.1719 16.4062 12.2188 15.75L12.4531 12.4336C12.5 11.7188 12.875 11.3086 13.543 11.3086H17.2461C17.7148 11.3086 18.0547 11.625 18.0547 12.1055C18.0547 12.5859 17.7148 12.9258 17.2461 12.9258H13.9766L13.8008 15.3398C14.1289 14.7773 14.8555 14.4375 15.5938 14.4375C17.1523 14.4375 18.3359 15.5977 18.3359 17.3672C18.3359 19.3359 17.0469 20.6133 15.0547 20.6133Z" fill="white"/>
</svg>
