<svg width="15" height="15" viewBox="0 0 15 15" fill="none" xmlns="http://www.w3.org/2000/svg">
<path d="M13.659 8.79911C13.8905 8.61991 14.0779 8.39011 14.2068 8.12741C14.3357 7.86461 14.4027 7.57581 14.4027 7.28311C14.4027 6.99041 14.3357 6.70151 14.2068 6.43881C14.0779 6.17601 13.8905 5.94621 13.659 5.76711C10.6612 3.44824 7.31417 1.62015 3.743 0.351067L3.09 0.119066C1.842 -0.323934 0.523 0.520066 0.354 1.80907C-0.118 5.44311 -0.118 9.12301 0.354 12.7571C0.524 14.0461 1.842 14.8901 3.09 14.4471L3.743 14.2151C7.31417 12.946 10.6612 11.1179 13.659 8.79911Z" fill="#F6F6F6"/>
</svg>
