<svg width="25" height="28" viewBox="0 0 25 28" fill="none" xmlns="http://www.w3.org/2000/svg">
<path d="M0.277344 15.5391C0.277344 11.8594 2.09375 8.22656 4.82422 6.12891C5.53906 5.54297 6.37109 5.61328 6.81641 6.21094C7.32031 6.84375 7.12109 7.61719 6.52344 8.16797C4.34375 9.92578 2.97266 12.5391 2.96094 15.5391C2.94922 20.8242 7.21484 25.0781 12.5 25.0781C17.7852 25.0781 22.0273 20.8242 22.0273 15.5391C22.0273 11.1211 19.0742 7.44141 15.0195 6.36328V7.88672C15.0195 8.83594 14.293 9.08203 13.4961 8.53125L9.41797 5.73047C8.77344 5.28516 8.77344 4.54688 9.41797 4.10156L13.5078 1.3125C14.3047 0.773438 15.0195 1.01953 15.0195 1.95703V3.58594C20.5273 4.75781 24.7227 9.70312 24.7227 15.5391C24.7227 22.2422 19.2031 27.7617 12.5 27.7617C5.79688 27.7617 0.277344 22.2422 0.277344 15.5391ZM9.26562 20.5078C8.71484 20.5078 8.36328 20.1328 8.36328 19.5234V13.3711H8.35156L7.4375 14.1328C7.21484 14.3789 7.03906 14.4609 6.75781 14.4609C6.3125 14.4609 5.96094 14.0859 5.96094 13.6406C5.96094 13.3008 6.11328 13.0547 6.45312 12.7617L7.90625 11.6836C8.375 11.3086 8.69141 11.1797 9.10156 11.1797C9.76953 11.1797 10.1914 11.5898 10.1914 12.3516V19.5234C10.1914 20.1328 9.82812 20.5078 9.26562 20.5078ZM15.1016 20.6133C13.6484 20.6133 12.6055 19.793 12.2891 19.0078C12.207 18.8086 12.1836 18.6445 12.1836 18.457C12.1836 17.9883 12.5117 17.6602 12.9688 17.6602C13.3086 17.6602 13.5195 17.8242 13.6953 18.1055C14.0117 18.6211 14.5039 18.9961 15.1602 18.9961C16.0039 18.9961 16.625 18.3164 16.625 17.4141C16.625 16.5352 16.0977 15.9141 15.2539 15.9141C14.8203 15.9141 14.4922 16.0898 14.1055 16.4297C13.8008 16.6641 13.6367 16.7578 13.1797 16.7578C12.582 16.7578 12.2188 16.4062 12.2773 15.75L12.5 12.4336C12.5469 11.7188 12.9219 11.3086 13.5898 11.3086H17.3047C17.7617 11.3086 18.1016 11.625 18.1016 12.1055C18.1016 12.5859 17.7617 12.9258 17.3047 12.9258H14.0352L13.8477 15.3398C14.1758 14.7773 14.9023 14.4375 15.6406 14.4375C17.1992 14.4375 18.3828 15.5977 18.3828 17.3672C18.3828 19.3359 17.0938 20.6133 15.1016 20.6133Z" fill="white"/>
</svg>
