<svg width="16" height="17" viewBox="0 0 16 17" fill="none" xmlns="http://www.w3.org/2000/svg">
<path fill-rule="evenodd" clip-rule="evenodd" d="M9.09126 0.671971C8.80366 0.553711 8.43896 0.553711 7.70955 0.553711C6.98016 0.553711 6.61547 0.553711 6.32779 0.671971C5.94423 0.829651 5.63948 1.13209 5.4806 1.51275C5.40808 1.68653 5.37969 1.88862 5.36859 2.1834C5.35226 2.6166 5.12841 3.01759 4.75012 3.23434C4.37184 3.45109 3.91001 3.44299 3.52383 3.24042C3.26104 3.10258 3.07049 3.02592 2.88259 3.00137C2.47097 2.94759 2.05469 3.05829 1.72531 3.30912C1.47828 3.49725 1.29593 3.81069 0.931236 4.43758C0.566546 5.06448 0.384197 5.37792 0.343557 5.6843C0.289367 6.09281 0.400906 6.50595 0.653646 6.83284C0.769006 6.98204 0.931137 7.10747 1.18276 7.26438C1.55268 7.49505 1.79069 7.88801 1.79067 8.32158C1.79064 8.75511 1.55264 9.14802 1.18276 9.37862C0.931087 9.53562 0.768937 9.66102 0.653567 9.81022C0.400827 10.1371 0.289286 10.5502 0.343476 10.9588C0.384116 11.2651 0.566467 11.5786 0.931157 12.2055C1.29586 12.8324 1.4782 13.1458 1.72523 13.3339C2.05461 13.5848 2.4709 13.6955 2.88252 13.6417C3.07041 13.6171 3.26094 13.5405 3.5237 13.4027C3.90991 13.2001 4.37178 13.192 4.75009 13.4087C5.1284 13.6255 5.35226 14.0265 5.36859 14.4598C5.3797 14.7545 5.40808 14.9566 5.4806 15.1304C5.63948 15.511 5.94423 15.8135 6.32779 15.9711C6.61547 16.0894 6.98016 16.0894 7.70955 16.0894C8.43896 16.0894 8.80366 16.0894 9.09126 15.9711C9.47486 15.8135 9.77966 15.511 9.93846 15.1304C10.0111 14.9566 10.0394 14.7545 10.0505 14.4597C10.0669 14.0265 10.2907 13.6255 10.669 13.4087C11.0473 13.1919 11.5092 13.2 11.8954 13.4026C12.1581 13.5404 12.3487 13.6171 12.5365 13.6416C12.9482 13.6954 13.3644 13.5847 13.6938 13.3339C13.9409 13.1458 14.1232 12.8323 14.4879 12.2054C14.8526 11.5785 15.0349 11.2651 15.0756 10.9587C15.1298 10.5502 15.0182 10.1371 14.7655 9.81022C14.6501 9.66102 14.488 9.53552 14.2363 9.37862C13.8664 9.14792 13.6284 8.75504 13.6285 8.3215C13.6285 7.888 13.8665 7.49513 14.2363 7.26451C14.488 7.10756 14.6502 6.98212 14.7656 6.83289C15.0183 6.50601 15.1298 6.09287 15.0757 5.68436C15.035 5.37798 14.8527 5.06453 14.488 4.43764C14.1233 3.81075 13.9409 3.4973 13.6939 3.30918C13.3645 3.05835 12.9482 2.94765 12.5366 3.00143C12.3487 3.02598 12.1582 3.10262 11.8954 3.24045C11.5092 3.44304 11.0474 3.45113 10.669 3.23437C10.2907 3.0176 10.0669 2.61659 10.0505 2.18336C10.0394 1.8886 10.0111 1.68652 9.93846 1.51275C9.77966 1.13209 9.47486 0.829651 9.09126 0.671971ZM7.70955 10.6519C9.00636 10.6519 10.0577 9.60862 10.0577 8.32157C10.0577 7.03455 9.00636 5.99121 7.70955 5.99121C6.41273 5.99121 5.36145 7.03455 5.36145 8.32157C5.36145 9.60862 6.41273 10.6519 7.70955 10.6519Z" fill="white" fill-opacity="0.8"/>
</svg>
