<svg width="101" height="103" viewBox="0 0 101 103" fill="none" xmlns="http://www.w3.org/2000/svg">
<g filter="url(#filter0_d_348_12483)">
<rect x="24" y="26.0195" width="47" height="47" rx="23.5" fill="#007AFF" fill-opacity="0.1" shape-rendering="crispEdges"/>
<rect x="24.5" y="26.5195" width="46" height="46" rx="23" stroke="#4285F4" stroke-opacity="0.2" shape-rendering="crispEdges"/>
<path d="M43.8096 42.5176C43.8966 42.5431 43.9862 42.6037 44.0586 42.7529L44.0684 42.7705L45.417 45.2832C45.534 45.5269 45.5675 45.6765 45.5615 45.7539C45.5596 45.7781 45.5547 45.783 45.5537 45.7842C45.5522 45.7861 45.5454 45.794 45.5293 45.8057L45.4453 45.8506L43.873 46.4795L43.8691 46.4814C43.4773 46.642 43.1769 46.9208 43.0488 47.3057C42.926 47.6749 42.9886 48.0612 43.1504 48.4033V48.4043L45.1816 53.0234L45.2031 53.0713L45.2334 53.1133C45.4625 53.4324 45.7529 53.7935 46.1631 53.9844C46.6037 54.1894 47.0878 54.1588 47.6191 53.9209L47.6201 53.9219L48.748 53.5029L48.7637 53.4971C48.8459 53.4634 48.8923 53.4629 48.9121 53.4648C48.93 53.4667 48.9516 53.4721 48.9824 53.4941C49.0619 53.5508 49.163 53.6831 49.2832 53.9307L50.4707 56.3945V56.3955C50.5793 56.6206 50.5934 56.7623 50.5811 56.8311C50.5763 56.8571 50.5684 56.8739 50.5547 56.8896C50.5388 56.9078 50.4998 56.9422 50.4131 56.9775L50.4111 56.9785C49.328 57.4253 48.0426 57.6556 46.8848 57.376C46.2228 57.2143 45.587 56.7601 45.0283 56.2266C44.4716 55.6949 44.0488 55.1434 43.7656 54.8086C43.4031 54.3799 42.9918 53.6816 42.5215 52.7598L42.0312 51.7646L41.7861 51.2432C41.2366 50.0405 40.8388 48.9462 40.7188 48.3184C40.6432 47.923 40.5195 47.2987 40.502 46.6133C40.4865 46.0089 40.5548 45.3987 40.7812 44.8818L40.8887 44.666C41.4357 43.6864 42.2877 43.0128 43.3447 42.5752C43.5553 42.4889 43.7108 42.4887 43.8096 42.5176ZM51.7197 46.1875L50.1113 47.7959L49.2578 48.6504H55.5059V48.8809H49.2578L50.1113 49.7344L51.7197 51.3438H51.2871L48.709 48.7656L51.2871 46.1875H51.7197Z" stroke="#8FB9FF"/>
</g>
<defs>
<filter id="filter0_d_348_12483" x="-6" y="0.0195312" width="107" height="107" filterUnits="userSpaceOnUse" color-interpolation-filters="sRGB">
<feFlood flood-opacity="0" result="BackgroundImageFix"/>
<feColorMatrix in="SourceAlpha" type="matrix" values="0 0 0 0 0 0 0 0 0 0 0 0 0 0 0 0 0 0 127 0" result="hardAlpha"/>
<feOffset dy="4"/>
<feGaussianBlur stdDeviation="15"/>
<feComposite in2="hardAlpha" operator="out"/>
<feColorMatrix type="matrix" values="0 0 0 0 0 0 0 0 0 0.533333 0 0 0 0 1 0 0 0 0.05 0"/>
<feBlend mode="normal" in2="BackgroundImageFix" result="effect1_dropShadow_348_12483"/>
<feBlend mode="normal" in="SourceGraphic" in2="effect1_dropShadow_348_12483" result="shape"/>
</filter>
</defs>
</svg>
