<svg width="101" height="105" viewBox="0 0 101 105" fill="none" xmlns="http://www.w3.org/2000/svg">
<g filter="url(#filter0_d_348_12492)">
<rect x="24" y="26.0195" width="47" height="47" rx="23.5" fill="#00FF0A" fill-opacity="0.1" shape-rendering="crispEdges"/>
<rect x="24.5" y="26.5195" width="46" height="46" rx="23" stroke="#32D74B" stroke-opacity="0.2" shape-rendering="crispEdges"/>
<path d="M46.202 48.6206C46.3202 48.6206 46.4373 48.5973 46.5465 48.552C46.6557 48.5068 46.755 48.4405 46.8386 48.3569C46.9222 48.2733 46.9885 48.1741 47.0337 48.0648C47.079 47.9556 47.1023 47.8385 47.1023 47.7203C47.1023 47.6021 47.079 47.485 47.0337 47.3758C46.9885 47.2666 46.9222 47.1673 46.8386 47.0837C46.755 47.0002 46.6557 46.9338 46.5465 46.8886C46.4373 46.8434 46.3202 46.8201 46.202 46.8201C45.9632 46.8201 45.7343 46.9149 45.5654 47.0837C45.3966 47.2526 45.3018 47.4816 45.3018 47.7203C45.3018 47.9591 45.3966 48.1881 45.5654 48.3569C45.7343 48.5257 45.9632 48.6206 46.202 48.6206Z" fill="#32D74B"/>
<path fill-rule="evenodd" clip-rule="evenodd" d="M41.705 52.5235V58.5195H50.261V55.2635H52.4075C52.5415 55.2635 52.6695 55.237 52.786 55.1895L51.596 54.2635H49.261V57.5195H42.7045V52.1205L42.4245 51.83C41.6045 50.9775 40 48.985 40 46.507C40 45.692 40.3075 44.444 41.233 43.412C42.0495 42.5015 43.4195 41.6795 45.7015 41.5405V45.0655C45.3069 45.1403 44.934 45.3022 44.6099 45.5393C44.2858 45.7765 44.0187 46.0829 43.828 46.4364C43.6373 46.7898 43.5279 47.1813 43.5076 47.5824C43.4874 47.9835 43.557 48.3841 43.7111 48.7549C43.8653 49.1257 44.1003 49.4575 44.3989 49.726C44.6975 49.9945 45.0523 50.1931 45.4374 50.3071C45.8224 50.4212 46.2281 50.4479 46.6248 50.3854C47.0215 50.3228 47.3992 50.1726 47.7305 49.9455L54.7655 55.407C54.7222 55.657 54.7646 55.9143 54.8859 56.1371C55.0072 56.3599 55.2002 56.5352 55.4337 56.6345C55.6672 56.7338 55.9273 56.7512 56.172 56.684C56.4166 56.6168 56.6313 56.4689 56.7813 56.2643C56.9313 56.0597 57.0077 55.8104 56.9982 55.5568C56.9886 55.3033 56.8936 55.0605 56.7287 54.8677C56.5637 54.675 56.3384 54.5436 56.0894 54.495C55.8404 54.4465 55.5823 54.4834 55.357 54.6L48.44 49.2295C48.6902 48.8586 48.8443 48.4313 48.8885 47.9861C48.9327 47.5408 48.8656 47.0916 48.6933 46.6787C48.5209 46.2658 48.2487 45.9022 47.901 45.6205C47.5534 45.3389 47.1412 45.148 46.7015 45.065V41.5225C47.973 41.546 48.854 41.7165 49.5205 41.9665C50.2265 42.2315 50.75 42.6065 51.2775 43.095L51.3485 43.161C51.8655 43.64 52.0195 43.783 52.107 44.016L54.2235 49.651H52.4075V51.095L53.4075 51.8725V50.651H54.2235C54.3851 50.6513 54.5443 50.6123 54.6876 50.5374C54.8308 50.4626 54.9537 50.3541 55.0458 50.2213C55.1379 50.0885 55.1964 49.9354 55.2163 49.775C55.2362 49.6146 55.2169 49.4518 55.16 49.3005L53.043 43.664C52.8685 43.199 52.531 42.889 52.106 42.499L51.9575 42.362C50.775 41.2655 49.4295 40.5195 46.399 40.5195C40.503 40.5195 39 44.457 39 46.507C39 49.3905 40.8415 51.6275 41.705 52.5235ZM46.2015 49.42C46.4248 49.4201 46.6459 49.3761 46.8523 49.2907C47.0586 49.2053 47.2461 49.08 47.404 48.9221C47.5619 48.7643 47.6872 48.5768 47.7727 48.3705C47.8582 48.1642 47.9022 47.9431 47.9023 47.7198C47.9023 47.4965 47.8583 47.2753 47.7729 47.069C47.6875 46.8627 47.5622 46.6752 47.4044 46.5173C47.2465 46.3593 47.059 46.2341 46.8527 46.1486C46.6464 46.0631 46.4253 46.0191 46.202 46.019C45.751 46.019 45.3185 46.1982 44.9996 46.5171C44.6807 46.836 44.5015 47.2685 44.5015 47.7195C44.5015 48.1705 44.6807 48.6031 44.9996 48.922C45.3185 49.2409 45.7505 49.42 46.2015 49.42Z" fill="#32D74B"/>
</g>
<defs>
<filter id="filter0_d_348_12492" x="-6" y="0.0195312" width="107" height="107" filterUnits="userSpaceOnUse" color-interpolation-filters="sRGB">
<feFlood flood-opacity="0" result="BackgroundImageFix"/>
<feColorMatrix in="SourceAlpha" type="matrix" values="0 0 0 0 0 0 0 0 0 0 0 0 0 0 0 0 0 0 127 0" result="hardAlpha"/>
<feOffset dy="4"/>
<feGaussianBlur stdDeviation="15"/>
<feComposite in2="hardAlpha" operator="out"/>
<feColorMatrix type="matrix" values="0 0 0 0 0.152941 0 0 0 0 0.784314 0 0 0 0 0.25098 0 0 0 0.05 0"/>
<feBlend mode="normal" in2="BackgroundImageFix" result="effect1_dropShadow_348_12492"/>
<feBlend mode="normal" in="SourceGraphic" in2="effect1_dropShadow_348_12492" result="shape"/>
</filter>
</defs>
</svg>
