<svg width="87" height="88" viewBox="0 0 87 88" fill="none" xmlns="http://www.w3.org/2000/svg">
<g filter="url(#filter0_d_348_12475)">
<rect x="20" y="16.0195" width="47" height="47" rx="23.5" fill="#FF8A00" fill-opacity="0.1" shape-rendering="crispEdges"/>
<rect x="20.5" y="16.5195" width="46" height="46" rx="23" stroke="#FF9F0A" stroke-opacity="0.2" shape-rendering="crispEdges"/>
<path d="M42.5098 32.702V31H51.0195V32.702H42.5098ZM42.5098 36.1059V34.4039H51.0195V36.1059H42.5098ZM42.5098 39.5098V37.8078H51.0195V39.5098H42.5098ZM48.4241 48.0195C46.6512 48.0195 44.8996 47.6332 43.1693 46.8605C41.439 46.0878 39.8646 44.992 38.4464 43.5732C37.0281 42.1543 35.9326 40.58 35.1599 38.8503C34.3872 37.1205 34.0006 35.3689 34 33.5955C34 33.3402 34.0851 33.1274 34.2553 32.9572C34.4255 32.7871 34.6382 32.702 34.8935 32.702H38.34C38.5385 32.702 38.7158 32.7695 38.8718 32.9045C39.0279 33.0395 39.12 33.1989 39.1484 33.3827L39.7015 36.3612C39.7299 36.5881 39.7228 36.7795 39.6803 36.9356C39.6377 37.0916 39.5597 37.2263 39.4462 37.3398L37.3826 39.4247C37.6663 39.9494 38.003 40.4566 38.3927 40.9462C38.7825 41.4358 39.2117 41.9073 39.6803 42.3605C40.1199 42.8002 40.5809 43.2081 41.0631 43.5842C41.5453 43.9604 42.0559 44.3042 42.5949 44.6156L44.5947 42.6158C44.7223 42.4882 44.8891 42.3926 45.095 42.3291C45.301 42.2655 45.5029 42.2476 45.7009 42.2754L48.6368 42.8711C48.8354 42.9279 48.9985 43.0308 49.1261 43.18C49.2538 43.3292 49.3176 43.4957 49.3176 43.6796V47.126C49.3176 47.3813 49.2325 47.594 49.0623 47.7642C48.8921 47.9344 48.6793 48.0195 48.4241 48.0195ZM36.5742 37.8078L37.9783 36.4037L37.6167 34.4039H35.7232C35.7941 34.9854 35.8934 35.5598 36.0211 36.1271C36.1487 36.6945 36.3331 37.2547 36.5742 37.8078ZM44.1904 45.4241C44.7436 45.6652 45.3075 45.8566 45.8822 45.9985C46.4569 46.1403 47.0347 46.2325 47.6156 46.275V44.4029L45.6158 43.9987L44.1904 45.4241Z" fill="#FF8A00"/>
</g>
<defs>
<filter id="filter0_d_348_12475" x="0" y="0.0195312" width="87" height="87" filterUnits="userSpaceOnUse" color-interpolation-filters="sRGB">
<feFlood flood-opacity="0" result="BackgroundImageFix"/>
<feColorMatrix in="SourceAlpha" type="matrix" values="0 0 0 0 0 0 0 0 0 0 0 0 0 0 0 0 0 0 127 0" result="hardAlpha"/>
<feOffset dy="4"/>
<feGaussianBlur stdDeviation="10"/>
<feComposite in2="hardAlpha" operator="out"/>
<feColorMatrix type="matrix" values="0 0 0 0 0.909804 0 0 0 0 0.72549 0 0 0 0 0.192157 0 0 0 0.05 0"/>
<feBlend mode="normal" in2="BackgroundImageFix" result="effect1_dropShadow_348_12475"/>
<feBlend mode="normal" in="SourceGraphic" in2="effect1_dropShadow_348_12475" result="shape"/>
</filter>
</defs>
</svg>
