<svg width="41" height="42" viewBox="0 0 41 42" fill="none" xmlns="http://www.w3.org/2000/svg">
<g filter="url(#filter0_d_348_12693)">
<rect x="7" y="5" width="27" height="27" rx="13.5" fill="#EF4444" fill-opacity="0.21" shape-rendering="crispEdges"/>
<rect x="7.28723" y="5.28723" width="26.4255" height="26.4255" rx="13.2128" stroke="#D1B6EE" stroke-opacity="0.25" stroke-width="0.574468" shape-rendering="crispEdges"/>
<path d="M23.2155 18.4999C23.806 18.4998 24.3804 18.3072 24.8517 17.9513C25.3229 17.5954 25.6652 17.0956 25.8269 16.5276C25.9885 15.9596 25.9606 15.3544 25.7473 14.8037C25.534 14.253 25.1471 13.7869 24.6451 13.4759C24.1431 13.1649 23.5533 13.0261 22.9653 13.0804C22.3773 13.1347 21.823 13.3792 21.3864 13.7768C20.9499 14.1745 20.6548 14.7036 20.546 15.284C20.4372 15.8645 20.5206 16.4645 20.7835 16.9933C20.833 17.0894 20.846 17.2002 20.8199 17.3051L20.658 17.9095C20.642 17.9694 20.642 18.0324 20.658 18.0922C20.6741 18.1521 20.7056 18.2066 20.7494 18.2505C20.7932 18.2943 20.8478 18.3258 20.9076 18.3418C20.9675 18.3579 21.0305 18.3579 21.0903 18.3418L21.6948 18.18C21.7997 18.1539 21.9105 18.1668 22.0065 18.2164C22.3822 18.403 22.796 18.5 23.2155 18.4999Z" stroke="#F47676" stroke-width="0.814655"/>
<path d="M15.4775 16.2875C15.4746 16.2341 15.4612 16.1817 15.4381 16.1335C15.415 16.0852 15.3826 16.042 15.3428 16.0063C15.303 15.9706 15.2565 15.943 15.2061 15.9252C15.1556 15.9075 15.1021 15.8998 15.0487 15.9027C14.9953 15.9056 14.943 15.919 14.8947 15.9421C14.8465 15.9652 14.8032 15.9976 14.7675 16.0374C14.7318 16.0772 14.7042 16.1237 14.6865 16.1741C14.6687 16.2246 14.661 16.2781 14.6639 16.3315L15.4775 16.2875ZM16.0021 14.2058C15.9308 14.2846 15.8931 14.3882 15.8971 14.4944C15.9011 14.6007 15.9465 14.7011 16.0236 14.7743C16.1006 14.8476 16.2033 14.8878 16.3096 14.8864C16.4159 14.885 16.5174 14.842 16.5925 14.7668L16.0021 14.2058ZM19.2314 23.2865C19.2767 23.3157 19.3274 23.3356 19.3804 23.345C19.4334 23.3545 19.4878 23.3534 19.5404 23.3417C19.593 23.33 19.6428 23.308 19.6868 23.277C19.7309 23.2459 19.7683 23.2064 19.797 23.1608C19.8256 23.1152 19.845 23.0643 19.8538 23.0112C19.8627 22.958 19.861 22.9036 19.8487 22.8512C19.8364 22.7987 19.8138 22.7492 19.7822 22.7055C19.7507 22.6618 19.7108 22.6249 19.6648 22.5967L19.2314 23.2865ZM21.6477 23.4201C21.5419 23.398 21.4316 23.4188 21.3412 23.478C21.2508 23.5371 21.1875 23.6298 21.1654 23.7356C21.1433 23.8414 21.1641 23.9517 21.2233 24.0421C21.2825 24.1325 21.3752 24.1958 21.481 24.2179L21.6477 23.4201ZM21.9366 20.9685L22.1837 20.7078L21.5928 20.1468L21.3457 20.4075L21.9366 20.9685ZM22.9978 20.5981L24.0352 21.1955L24.442 20.4895L23.4041 19.8921L22.9978 20.5981ZM24.2356 22.4338L23.4638 23.2457L24.0547 23.8073L24.8259 22.9948L24.2356 22.4338ZM17.9796 21.1939C15.8745 18.9775 15.5215 17.1076 15.4775 16.2875L14.6639 16.3315C14.7182 17.3362 15.144 19.3913 17.3892 21.7549L17.9796 21.1939ZM18.7269 17.5893L18.8822 17.4253L18.2919 16.8643L18.136 17.0283L18.7269 17.5893ZM19.005 15.3832L18.3201 14.4149L17.6548 14.8852L18.3391 15.8535L19.005 15.3832ZM18.4309 17.3085C18.3331 17.2143 18.2345 17.1211 18.1349 17.0288L18.1338 17.0299L18.1322 17.0315L18.105 17.063C18.0518 17.1335 18.0097 17.2117 17.9801 17.2949C17.9269 17.4443 17.8986 17.642 17.9345 17.8886C18.0051 18.373 18.3228 19.0242 19.1521 19.898L19.743 19.3365C18.9675 18.5202 18.7763 18.0178 18.7405 17.7702C18.7231 17.6507 18.7405 17.5882 18.7475 17.5681L18.7519 17.5578C18.746 17.567 18.7393 17.5755 18.7318 17.5833L18.7291 17.586L18.7274 17.5877L18.7269 17.5882C18.7269 17.5882 18.7263 17.5893 18.4309 17.3085ZM19.1521 19.8975C19.9793 20.7686 20.6038 21.1108 21.0801 21.1885C21.3251 21.2281 21.5233 21.1961 21.6732 21.1369C21.7565 21.1045 21.834 21.0586 21.9024 21.0011L21.9214 20.9826L21.929 20.975L21.9328 20.9718L21.9345 20.9701L21.935 20.969C21.935 20.969 21.9361 20.9685 21.6406 20.6877C21.3452 20.4075 21.3457 20.4069 21.3457 20.4064L21.3468 20.4058L21.3479 20.4042L21.3512 20.4015L21.3767 20.3787C21.3818 20.3758 21.3808 20.376 21.374 20.3792C21.3631 20.3836 21.3142 20.401 21.211 20.3841C20.9927 20.3483 20.5213 20.156 19.743 19.3365L19.1521 19.8975ZM18.3201 14.4149C17.7694 13.6361 16.668 13.5041 16.0021 14.2058L16.5925 14.7668C16.8765 14.4681 17.3767 14.4914 17.6548 14.8852L18.3201 14.4149ZM23.4638 23.2457C23.3123 23.4054 23.1543 23.4912 23 23.5064L23.0799 24.3167C23.4856 24.2771 23.8141 24.0609 24.0547 23.8073L23.4638 23.2457ZM18.8822 17.4253C19.4085 16.8713 19.4449 16.0062 19.005 15.3832L18.3396 15.8535C18.5688 16.1778 18.5335 16.6095 18.2919 16.8637L18.8822 17.4253ZM24.0352 21.1955C24.4811 21.4524 24.5685 22.0835 24.2356 22.4338L24.8259 22.9948C25.5347 22.2486 25.3283 21 24.442 20.4895L24.0352 21.1955ZM22.1837 20.7078C22.3928 20.4873 22.7192 20.4379 22.9978 20.5981L23.4041 19.8921C22.8072 19.5488 22.0681 19.6471 21.5928 20.1468L22.1837 20.7078ZM19.6648 22.5967C19.1304 22.2611 18.5623 21.807 17.9796 21.1939L17.3892 21.7549C18.016 22.4148 18.6367 22.9128 19.2314 23.2865L19.6648 22.5967ZM22.9995 23.5064C22.5471 23.5459 22.0914 23.5168 21.6477 23.4201L21.481 24.2179C22.0059 24.3313 22.545 24.3646 23.0799 24.3167L22.9995 23.5064Z" fill="#F47676"/>
</g>
<defs>
<filter id="filter0_d_348_12693" x="0.278724" y="0.576596" width="40.4426" height="40.4426" filterUnits="userSpaceOnUse" color-interpolation-filters="sRGB">
<feFlood flood-opacity="0" result="BackgroundImageFix"/>
<feColorMatrix in="SourceAlpha" type="matrix" values="0 0 0 0 0 0 0 0 0 0 0 0 0 0 0 0 0 0 127 0" result="hardAlpha"/>
<feOffset dy="2.29787"/>
<feGaussianBlur stdDeviation="3.36064"/>
<feComposite in2="hardAlpha" operator="out"/>
<feColorMatrix type="matrix" values="0 0 0 0 0 0 0 0 0 0 0 0 0 0 0 0 0 0 0.15 0"/>
<feBlend mode="normal" in2="BackgroundImageFix" result="effect1_dropShadow_348_12693"/>
<feBlend mode="normal" in="SourceGraphic" in2="effect1_dropShadow_348_12693" result="shape"/>
</filter>
</defs>
</svg>
